<svg width="192" height="48" viewBox="0 0 192 48" fill="none" xmlns="http://www.w3.org/2000/svg">
<path fill-rule="evenodd" clip-rule="evenodd" d="M52.7469 27.1476C51.2702 35.0532 44.3339 41.037 36 41.037C34.2632 41.037 32.5872 40.7772 31.0085 40.2942L29.1301 29.6411C30.7604 31.6241 33.2325 32.8889 36 32.8889C37.7477 32.8889 39.3776 32.3845 40.7521 31.5133L52.7469 27.1476ZM28.1037 28.0858C27.4695 26.8625 27.1111 25.4731 27.1111 24C27.1111 21.5577 28.0961 19.3454 29.6905 17.7388L19.1333 21.5813C19.021 22.3714 18.963 23.1789 18.963 24C18.963 31.3763 23.6506 37.6577 30.2094 40.0277L28.1037 28.0858ZM31.6969 16.2202L19.2742 20.7417C20.7946 12.891 27.705 6.96296 36 6.96296C37.7444 6.96296 39.4275 7.22512 41.0122 7.7122L42.8949 18.3895C41.265 16.3889 38.7817 15.1111 36 15.1111C34.439 15.1111 32.9719 15.5135 31.6969 16.2202ZM52.8817 26.3102L42.4634 30.1022C43.9671 28.5101 44.8889 26.3627 44.8889 24C44.8889 22.5502 44.5418 21.1815 43.9262 19.9724L41.8116 7.97989C48.3594 10.3557 53.037 16.6316 53.037 24C53.037 24.7836 52.9841 25.5548 52.8817 26.3102ZM56 24C56 35.0457 47.0457 44 36 44C24.9543 44 16 35.0457 16 24C16 12.9543 24.9543 4 36 4C47.0457 4 56 12.9543 56 24Z" fill="black"/>
<path fill-rule="evenodd" clip-rule="evenodd" d="M33.5 19.7978C32.7825 20.2256 32.1838 20.8319 31.7652 21.5555H33.5L33.5 19.7978ZM33.5 26.4444H31.7652C32.1837 27.168 32.7825 27.7744 33.5 28.2022L33.5 26.4444ZM38.3889 28.2665V26.4444H40.2349C39.7948 27.2051 39.1558 27.8362 38.3889 28.2665ZM38.3889 21.5555V19.7335C39.1558 20.1638 39.7948 20.7949 40.2349 21.5555H38.3889Z" fill="white"/>
<path d="M67.184 35V17.24H73.04C76.688 17.24 79.472 18.32 79.472 21.632C79.472 23.264 78.584 24.92 77.072 25.472V25.568C78.968 26.024 80.384 27.392 80.384 29.768C80.384 33.344 77.408 35 73.52 35H67.184ZM70.736 24.464H72.8C75.056 24.464 76.016 23.576 76.016 22.136C76.016 20.576 74.984 19.976 72.848 19.976H70.736V24.464ZM70.736 32.264H73.208C75.608 32.264 76.928 31.4 76.928 29.576C76.928 27.848 75.656 27.104 73.208 27.104H70.736V32.264ZM89.0879 35.336C85.3199 35.336 82.3919 32.744 82.3919 28.304C82.3919 23.936 85.4639 21.248 88.6319 21.248C92.3519 21.248 94.2479 23.936 94.2479 27.656C94.2479 28.328 94.1759 28.952 94.1039 29.288H85.7999C86.1119 31.496 87.5519 32.624 89.5439 32.624C90.6239 32.624 91.5839 32.288 92.5679 31.688L93.7439 33.872C92.4239 34.784 90.7439 35.336 89.0879 35.336ZM85.7519 26.936H91.2479C91.2479 25.112 90.4319 23.96 88.7039 23.96C87.2879 23.96 86.0399 24.968 85.7519 26.936ZM97.1773 35V21.584H100.033L100.321 23.36H100.393C101.545 22.208 102.937 21.248 104.761 21.248C107.641 21.248 108.913 23.264 108.913 26.624V35H105.385V27.08C105.385 24.968 104.785 24.272 103.489 24.272C102.385 24.272 101.689 24.8 100.705 25.76V35H97.1773ZM118.408 35.336C114.64 35.336 111.712 32.744 111.712 28.304C111.712 23.936 114.784 21.248 117.952 21.248C121.672 21.248 123.568 23.936 123.568 27.656C123.568 28.328 123.496 28.952 123.424 29.288H115.12C115.432 31.496 116.872 32.624 118.864 32.624C119.944 32.624 120.904 32.288 121.888 31.688L123.064 33.872C121.744 34.784 120.064 35.336 118.408 35.336ZM115.072 26.936H120.568C120.568 25.112 119.752 23.96 118.024 23.96C116.608 23.96 115.36 24.968 115.072 26.936ZM126.839 35V20.48C126.839 17.696 128.159 15.536 131.519 15.536C132.575 15.536 133.487 15.752 134.087 15.968L133.415 18.608C132.959 18.416 132.455 18.296 131.999 18.296C130.943 18.296 130.367 18.944 130.367 20.432V35H126.839ZM125.039 24.344V21.728L127.055 21.584H132.911V24.344H125.039ZM135.167 35V21.584H138.695V35H135.167ZM136.919 19.4C135.719 19.4 134.879 18.632 134.879 17.456C134.879 16.304 135.719 15.56 136.919 15.56C138.143 15.56 139.007 16.304 139.007 17.456C139.007 18.632 138.143 19.4 136.919 19.4ZM142.459 40.16V21.584H145.315L145.603 22.976H145.675C146.779 21.992 148.171 21.248 149.611 21.248C152.923 21.248 154.891 23.936 154.891 28.088C154.891 32.696 152.131 35.336 149.179 35.336C148.027 35.336 146.875 34.832 145.867 33.896L145.987 36.08V40.16H142.459ZM148.411 32.432C150.019 32.432 151.267 31.04 151.267 28.136C151.267 25.544 150.475 24.128 148.603 24.128C147.715 24.128 146.898 24.584 145.987 25.52V31.448C146.827 32.192 147.691 32.432 148.411 32.432ZM157.904 35V21.584H161.432V35H157.904ZM159.656 19.4C158.432 19.4 157.616 18.632 157.616 17.456C157.616 16.304 158.432 15.56 159.656 15.56C160.88 15.56 161.72 16.304 161.72 17.456C161.72 18.632 160.88 19.4 159.656 19.4ZM170.881 35.336C167.185 35.336 164.353 32.744 164.353 28.304C164.353 23.84 167.545 21.248 171.193 21.248C172.873 21.248 174.121 21.872 175.105 22.736L173.449 24.992C172.777 24.416 172.129 24.128 171.409 24.128C169.321 24.128 167.953 25.76 167.953 28.304C167.953 30.824 169.345 32.48 171.265 32.48C172.249 32.48 173.161 32 173.905 31.4L175.297 33.728C174.025 34.832 172.369 35.336 170.881 35.336Z" fill="black"/>
</svg>
